<?xml version="1.0" standalone="no"?>
<!DOCTYPE svg PUBLIC "-//W3C//DTD SVG 20010904//EN"
 "http://www.w3.org/TR/2001/REC-SVG-20010904/DTD/svg10.dtd">
<svg version="1.0" xmlns="http://www.w3.org/2000/svg"
 width="920.000000pt" height="512.000000pt" viewBox="0 0 920.000000 512.000000"
 preserveAspectRatio="xMidYMid meet">
<metadata>
Created by potrace 1.16, written by Peter Selinger 2001-2019
</metadata>
<g transform="translate(0.000000,512.000000) scale(0.100000,-0.100000)"
fill="#000000" stroke="none">
<path d="M2295 4736 c-92 -29 -178 -107 -222 -201 l-28 -60 0 -1915 0 -1915
29 -62 c33 -73 107 -147 181 -184 l50 -24 2295 0 2295 0 50 24 c74 37 148 111
181 184 l29 62 0 1915 0 1915 -29 62 c-33 73 -107 147 -181 184 l-50 24 -2280
2 c-1812 1 -2288 -1 -2320 -11z m452 -271 c48 -20 71 -41 94 -87 41 -81 11
-188 -65 -233 -92 -54 -212 -21 -256 70 -74 152 74 314 227 250z m550 0 c50
-21 72 -42 94 -90 33 -71 22 -144 -29 -198 -40 -42 -75 -57 -134 -57 -102 0
-177 73 -178 172 0 83 32 136 105 169 49 23 94 24 142 4z m3493 -2180 l0
-1555 -2190 0 -2190 0 0 1555 0 1555 2190 0 2190 0 0 -1555z"/>
<path d="M2920 3489 l5 -131 447 -191 c246 -105 444 -195 440 -199 -4 -4 -206
-92 -450 -196 l-443 -188 -2 -127 c-1 -70 1 -127 6 -127 4 0 161 70 350 157
188 86 448 204 577 263 l235 107 3 114 3 114 -581 265 c-319 146 -584 266
-588 268 -4 1 -5 -57 -2 -129z"/>
<path d="M4645 3092 c-3 -3 -5 -59 -5 -124 l0 -118 320 0 320 0 0 124 0 125
-315 -2 c-173 0 -317 -3 -320 -5z"/>
</g>
</svg>
