<?xml version="1.0" standalone="no"?>
<!DOCTYPE svg PUBLIC "-//W3C//DTD SVG 20010904//EN"
 "http://www.w3.org/TR/2001/REC-SVG-20010904/DTD/svg10.dtd">
<svg version="1.0" xmlns="http://www.w3.org/2000/svg"
 width="512.000000pt" height="512.000000pt" viewBox="0 0 512.000000 512.000000"
 preserveAspectRatio="xMidYMid meet">
<metadata>
Created by potrace 1.16, written by Peter Selinger 2001-2019
</metadata>
<g transform="translate(0.000000,512.000000) scale(0.100000,-0.100000)"
fill="#000000" stroke="none">
<path d="M213 4431 c-77 -26 -136 -80 -175 -159 l-33 -67 0 -1675 0 -1675 23
-43 c29 -55 89 -115 144 -144 40 -22 56 -23 255 -26 l213 -3 2 1446 3 1447
952 -681 c523 -375 957 -681 963 -681 10 0 319 220 1453 1032 251 180 460 328
462 328 3 0 5 -651 5 -1446 l0 -1445 213 3 c199 3 215 4 255 26 55 29 115 89
144 144 l23 43 0 1680 0 1680 -21 46 c-31 67 -87 124 -156 159 -57 28 -68 30
-173 30 l-113 0 -1046 -761 -1046 -761 -1047 761 -1047 761 -101 0 c-69 -1
-116 -6 -152 -19z"/>
</g>
</svg>
