<?xml version="1.0" standalone="no"?>
<!DOCTYPE svg PUBLIC "-//W3C//DTD SVG 20010904//EN"
 "http://www.w3.org/TR/2001/REC-SVG-20010904/DTD/svg10.dtd">
<svg version="1.0" xmlns="http://www.w3.org/2000/svg"
 width="225.000000pt" height="225.000000pt" viewBox="0 0 225.000000 225.000000"
 preserveAspectRatio="xMidYMid meet">
<metadata>
Created by potrace 1.16, written by Peter Selinger 2001-2019
</metadata>
<g transform="translate(0.000000,225.000000) scale(0.100000,-0.100000)"
fill="#000000" stroke="none">
<path d="M288 2221 l-33 -29 -3 -1054 c-1 -579 0 -1063 3 -1076 3 -12 20 -31
38 -42 31 -19 54 -20 832 -20 778 0 801 1 832 20 18 11 35 30 38 42 3 13 4
400 3 860 l-3 838 -243 242 -242 243 -595 3 -594 2 -33 -29z m1172 -281 l0
-230 230 0 230 0 0 -485 0 -485 -795 0 -795 0 0 715 0 715 565 0 565 0 0 -230z
m240 5 l165 -165 -168 0 -167 0 0 165 c0 91 1 165 3 165 1 0 76 -74 167 -165z
m220 -1575 l0 -290 -795 0 -795 0 0 290 0 290 795 0 795 0 0 -290z"/>
<path d="M1065 1915 c-35 -34 -34 -110 2 -215 l26 -79 -22 -78 c-12 -43 -45
-134 -72 -203 l-49 -125 -67 -35 c-38 -19 -89 -55 -115 -81 -42 -40 -48 -50
-48 -88 0 -50 34 -91 75 -91 39 0 104 67 158 164 l48 85 77 30 c42 16 118 40
167 54 l91 24 34 -28 c78 -66 150 -77 200 -31 16 15 33 41 36 58 12 64 -63 95
-185 76 l-63 -9 -40 51 c-51 65 -87 117 -126 186 l-31 55 14 65 c21 98 19 176
-6 211 -26 37 -70 39 -104 4z m90 -395 c3 -10 33 -56 65 -102 33 -45 56 -85
52 -89 -4 -3 -36 -14 -72 -24 -36 -9 -86 -25 -112 -35 -27 -10 -48 -15 -48
-11 0 4 18 55 40 114 22 59 43 121 47 137 6 34 19 39 28 10z"/>
<path d="M650 355 l0 -195 30 0 30 0 0 69 0 69 60 4 c68 5 102 29 120 85 33
97 -44 161 -192 163 l-48 0 0 -195z m167 119 c21 -21 24 -32 19 -62 -7 -47
-37 -72 -87 -72 l-39 0 0 80 0 80 40 0 c31 0 47 -7 67 -26z"/>
<path d="M978 544 c-5 -4 -8 -92 -8 -196 l0 -188 98 0 c115 0 155 16 189 76
61 107 27 241 -72 288 -38 18 -195 33 -207 20z m166 -58 c54 -22 76 -60 76
-128 0 -110 -41 -158 -135 -158 l-45 0 0 150 0 150 35 0 c20 0 50 -6 69 -14z"/>
<path d="M1380 355 l0 -195 30 0 30 0 0 85 0 85 85 0 c78 0 85 2 85 20 0 17
-8 19 -82 22 l-83 3 -3 63 -3 62 91 0 c89 0 90 0 90 25 l0 25 -120 0 -120 0 0
-195z"/>
</g>
</svg>
