<?xml version="1.0" standalone="no"?>
<!DOCTYPE svg PUBLIC "-//W3C//DTD SVG 20010904//EN"
 "http://www.w3.org/TR/2001/REC-SVG-20010904/DTD/svg10.dtd">
<svg version="1.0" xmlns="http://www.w3.org/2000/svg"
 width="225.000000pt" height="225.000000pt" viewBox="0 0 225.000000 225.000000"
 preserveAspectRatio="xMidYMid meet">

<g transform="translate(0.000000,225.000000) scale(0.100000,-0.100000)"
fill="#000000" stroke="none">
<path d="M416 2235 c-61 -21 -88 -46 -118 -105 l-28 -54 0 -950 c0 -935 1
-952 21 -996 27 -60 45 -79 104 -106 l50 -24 680 0 680 0 50 24 c59 27 77 46
104 106 20 44 21 63 21 785 l0 740 -298 297 -297 298 -465 0 c-373 -1 -473 -4
-504 -15z m874 -340 c6 -224 10 -239 83 -299 l39 -31 206 -5 207 -5 3 -676 c2
-654 2 -677 -17 -700 l-19 -24 -667 0 -667 0 -19 24 c-18 22 -19 52 -19 943 0
631 3 926 11 939 6 11 20 24 32 29 12 5 202 8 422 7 l400 -2 5 -200z m309
-193 c-96 -2 -146 1 -155 9 -11 9 -14 45 -14 158 l0 146 155 -155 155 -155
-141 -3z"/>
<path d="M889 1961 c-76 -25 -109 -76 -109 -169 0 -198 149 -317 271 -215 52
44 72 97 76 198 5 103 -11 141 -68 171 -37 19 -132 27 -170 15z"/>
<path d="M860 1525 c-8 -10 -48 -34 -90 -54 l-75 -37 -32 -95 c-18 -52 -33
-111 -33 -131 l0 -38 325 0 c273 0 327 2 331 14 7 17 -26 142 -55 209 -18 42
-28 51 -83 77 -35 16 -76 37 -91 47 l-28 18 -33 -36 -33 -36 17 -114 c16 -105
16 -115 1 -136 -20 -28 -23 -28 -47 -2 -18 20 -18 24 -1 137 l17 117 -38 38
c-35 35 -40 37 -52 22z"/>
<path d="M626 984 c-9 -8 -16 -24 -16 -34 0 -10 7 -26 16 -34 14 -14 73 -16
499 -16 426 0 485 2 499 16 9 8 16 24 16 34 0 10 -7 26 -16 34 -14 14 -73 16
-499 16 -426 0 -485 -2 -499 -16z"/>
<path d="M620 711 c-14 -27 -13 -47 6 -65 14 -14 73 -16 499 -16 426 0 485 2
499 16 19 18 20 38 6 65 -10 18 -27 19 -505 19 -478 0 -495 -1 -505 -19z"/>
<path d="M622 448 c-18 -18 -15 -53 6 -71 17 -15 66 -17 499 -17 452 0 481 1
496 18 20 22 22 53 5 70 -17 17 -989 17 -1006 0z"/>
</g>
</svg>
