<?xml version="1.0" standalone="no"?>
<!DOCTYPE svg PUBLIC "-//W3C//DTD SVG 20010904//EN"
 "http://www.w3.org/TR/2001/REC-SVG-20010904/DTD/svg10.dtd">
<svg version="1.0" xmlns="http://www.w3.org/2000/svg"
 width="225.000000pt" height="225.000000pt" viewBox="0 0 225.000000 225.000000"
 preserveAspectRatio="xMidYMid meet">
<metadata>
Created by potrace 1.16, written by Peter Selinger 2001-2019
</metadata>
<g transform="translate(0.000000,225.000000) scale(0.100000,-0.100000)"
fill="#000000" stroke="none">
<path d="M0 1125 l0 -1125 1125 0 1125 0 0 1125 0 1125 -1125 0 -1125 0 0
-1125z m599 735 c70 -20 121 -90 121 -165 0 -109 -95 -185 -213 -172 -99 12
-159 80 -159 178 1 121 121 197 251 159z m1074 -479 c105 -41 184 -142 218
-281 10 -40 13 -144 14 -385 l0 -330 -167 -3 -167 -2 -3 317 c-3 309 -4 319
-26 361 -30 57 -73 82 -140 82 -81 0 -135 -36 -167 -112 -12 -31 -15 -90 -15
-343 l0 -305 -170 0 -170 0 3 503 2 502 168 3 167 2 0 -71 0 -71 28 34 c52 63
108 100 179 118 60 15 181 5 246 -19z m-973 -496 l0 -505 -167 2 -168 3 -3
490 c-1 270 0 496 3 503 3 9 47 12 170 12 l165 0 0 -505z"/>
</g>
</svg>
